# xmcd CD database file
#
# Track frame offsets:
#	150
#	23985
#	38265
#	60130
#	73757
#	100620
#	110372
#	129185
#	150245
#	170507
#	184312
#	199757
#
# Disc length: 2882 seconds
#
# Revision: 0
# Processed by: cddbd v1.4PL0 Copyright (c) Steve Scherf et al.
# Submitted via: CDex 1.50
#
DISCID=8a0b400c
DTITLE=Gospangels - Pour tous les fous de vie
DYEAR=1900
DGENRE=Jazz
TTITLE0=Your garce and mercy
TTITLE1=Tomber debout en amitié
TTITLE2=Y'a des enfants
TTITLE3=Nothing but the blood
TTITLE4=Joy
TTITLE5=Ave Maria
TTITLE6=Shout
TTITLE7=Si chacun
TTITLE8=The power of the dream
TTITLE9=J'ai vu maman embrasser le Père Noël
TTITLE10=Les anges dans nos campagnes
TTITLE11=Sainte nuit
EXTD=
EXTT0=
EXTT1=
EXTT2=
EXTT3=
EXTT4=
EXTT5=
EXTT6=
EXTT7=
EXTT8=
EXTT9=
EXTT10=
EXTT11=
PLAYORDER=
